<svg xmlns="http://www.w3.org/2000/svg" width="512" height="512" viewBox="0 0 512 512"><defs>
<linearGradient id="flame" x1="0" y1="1" x2="0" y2="0"><stop offset="0" stop-color="#ffd24d"></stop><stop offset=".35" stop-color="#ff8a1e"></stop><stop offset=".72" stop-color="#ff3d1f"></stop><stop offset="1" stop-color="#c81e12"></stop></linearGradient>
<linearGradient id="core" x1="0" y1="1" x2="0" y2="0"><stop offset="0" stop-color="#fff7d4"></stop><stop offset=".5" stop-color="#ffe08a"></stop><stop offset="1" stop-color="#ffab3d"></stop></linearGradient>
<linearGradient id="amber" x1="0" y1="1" x2="0" y2="0"><stop offset="0" stop-color="#ffe27a"></stop><stop offset=".4" stop-color="#ffb347"></stop><stop offset=".78" stop-color="#ff7a1e"></stop><stop offset="1" stop-color="#d94d12"></stop></linearGradient>
<linearGradient id="gold" x1="0" y1="0" x2="1" y2="1"><stop offset="0" stop-color="#fff4cf"></stop><stop offset=".28" stop-color="#f0cf6c"></stop><stop offset=".5" stop-color="#c99a2e"></stop><stop offset=".56" stop-color="#fbe9a8"></stop><stop offset=".62" stop-color="#c99a2e"></stop><stop offset="1" stop-color="#8a6508"></stop></linearGradient>
<linearGradient id="silver" x1="0" y1="0" x2="1" y2="1"><stop offset="0" stop-color="#ffffff"></stop><stop offset=".28" stop-color="#dfe4ea"></stop><stop offset=".5" stop-color="#9aa4b0"></stop><stop offset=".56" stop-color="#f4f7fa"></stop><stop offset=".62" stop-color="#9aa4b0"></stop><stop offset="1" stop-color="#6b7480"></stop></linearGradient>
<linearGradient id="steel" x1="0" y1="0" x2="1" y2="1"><stop offset="0" stop-color="#dbe6f2"></stop><stop offset=".45" stop-color="#8aa6c4"></stop><stop offset="1" stop-color="#41607e"></stop></linearGradient>
<linearGradient id="red" x1="0" y1="0" x2="0" y2="1"><stop offset="0" stop-color="#f36a4f"></stop><stop offset=".5" stop-color="#cc3320"></stop><stop offset="1" stop-color="#8f1508"></stop></linearGradient>
<linearGradient id="fireOut" x1="0" y1="1" x2="0" y2="0"><stop offset="0" stop-color="#ff7a1e"></stop><stop offset=".45" stop-color="#f23a15"></stop><stop offset="1" stop-color="#8f1206"></stop></linearGradient>
<filter id="fireglow" x="-40%" y="-40%" width="180%" height="180%"><feGaussianBlur stdDeviation="1.5" result="b"></feGaussianBlur><feMerge><feMergeNode in="b"></feMergeNode><feMergeNode in="SourceGraphic"></feMergeNode></feMerge></filter><radialGradient id="bg" cx="50%" cy="18%" r="80%"><stop offset="0" stop-color="#342a20"></stop><stop offset=".58" stop-color="#160f0b"></stop><stop offset="1" stop-color="#0a0706"></stop></radialGradient></defs><rect x="0" y="0" width="512" height="512" rx="118" ry="118" fill="url(#bg)"></rect><g transform="translate(97.28 97.28) scale(3.1744)"><g stroke="url(#steel)" stroke-width="8" stroke-linecap="round"><line x1="50" y1="14" x2="50" y2="26"></line><line x1="50" y1="74" x2="50" y2="86"></line><line x1="50" y1="14" x2="50" y2="26" transform="rotate(45 50 50)"></line><line x1="50" y1="14" x2="50" y2="26" transform="rotate(90 50 50)"></line><line x1="50" y1="14" x2="50" y2="26" transform="rotate(135 50 50)"></line><line x1="50" y1="14" x2="50" y2="26" transform="rotate(180 50 50)"></line><line x1="50" y1="14" x2="50" y2="26" transform="rotate(225 50 50)"></line><line x1="50" y1="14" x2="50" y2="26" transform="rotate(315 50 50)"></line></g><circle cx="50" cy="50" r="22" fill="#12100d" stroke="url(#steel)" stroke-width="4"></circle><g transform="translate(35,33) scale(0.3)"><path d="M50 8 C66 30 74 47 69 63 C64 84 34 84 30 62 C27 49 38 47 43 53 C40 40 45 24 50 8 Z" fill="url(#flame)"></path></g></g><defs><linearGradient id="gloss" x1="0" y1="0" x2="0" y2="1"><stop offset="0" stop-color="rgba(255,255,255,.17)"></stop><stop offset=".4" stop-color="rgba(255,255,255,0)"></stop></linearGradient></defs><rect x="0" y="0" width="512" height="512" rx="118" ry="118" fill="url(#gloss)"></rect></svg>